# xmcd
#
# Track frame offsets:
#	150
#	13759
#	26284
#	38166
#	53096
#	68996
#	80196
#	90270
#	102214
#	113023
#	124915
#	144570
#	159147
#	171322
#	186821
#	205351
#	219253
#	238422
#
# Disc length: 3366
#
# Revision: 2
# Processed by: cddbd v1.5.1PL0 Copyright (c) Steve Scherf et al.
# Submitted via: EasyCDDAExtractor 5.1.0
# Normalized: r1:DSETVAR1
#
DISCID=f30d2412
DTITLE=Various Artist - BN044
DYEAR=1996
DGENRE=Blues
TTITLE0=Lightnin´ Hopkins - Mojo hand
TTITLE1=Lightning Slim - Rooster blues
TTITLE2=Jelly Roll Morton - Meaple leaf rag
TTITLE3=Leadbelly - The house of the rising sun (in New Orleans)
TTITLE4=Lightnin´ Hopkins - Coffee for mama
TTITLE5=Lightning Slim - My babe
TTITLE6=Jelly Roll Morton - King Porter stomp
TTITLE7=Leadbelly - The boll weevil song
TTITLE8=Lighnin´ Hopkins - Nothin´ but the blues
TTITLE9=Lightning Slim - Nothing´s bad luck
TTITLE10=Leadbelly - John Hardy
TTITLE11=Jelly Roll Morton - Jelly roll blues
TTITLE12=Lightnin´ Hopkins - Evil hearted woman
TTITLE13=Jelly Roll Morton - Wolverine blues
TTITLE14=Lightning Slim - Hoodoo blues
TTITLE15=Leadbelly - Where did you sleep last night
TTITLE16=Lightnin´ Hopkins - Good times
TTITLE17=Lightning Slim - Good mornign heartaches
EXTD=
EXTT0=
EXTT1=
EXTT2=
EXTT3=
EXTT4=
EXTT5=
EXTT6=
EXTT7=
EXTT8=
EXTT9=
EXTT10=
EXTT11=
EXTT12=
EXTT13=
EXTT14=
EXTT15=
EXTT16=
EXTT17=
PLAYORDER=
